# Blender v2.70 (sub 0) OBJ File: 'kimura2.blend'
# www.blender.org
mtllib board.mtl
v -5.015279 0.000000 10.292391
v -5.642188 0.000000 14.385473
v -5.892952 0.000000 17.394579
v -5.266043 0.000000 18.244463
v -2.883785 0.000000 18.689938
v -4.109812 -0.038661 8.252146
v -6.812420 0.000000 4.764738
v -9.529029 0.000000 3.606780
v -7.272153 0.000000 -12.917534
v -12.788960 0.000000 -8.066282
v -10.281322 0.000000 -10.358273
v -13.165108 0.000000 -3.678843
v -14.293544 0.000000 -4.992548
v -12.412814 0.000000 3.946564
v -16.675802 0.000000 2.849467
v -19.810349 0.000000 -7.045221
v -16.425037 0.000000 -6.292278
v -21.941845 0.000000 -3.879769
v -21.064171 0.000000 -0.108124
v 5.015279 0.000000 10.292391
v 5.642188 0.000000 14.385473
v 5.892952 0.000000 17.394579
v 5.266043 0.000000 18.244463
v 2.883785 0.000000 18.689938
v 0.000000 0.000000 18.993034
v 4.109812 -0.038661 8.252146
v 6.812420 0.000000 4.764738
v 0.000000 0.000000 -13.804108
v 9.529029 0.000000 3.606780
v 7.272153 0.000000 -12.917534
v 12.788960 0.000000 -8.066282
v 10.281322 0.000000 -10.358273
v 13.165108 0.000000 -3.678843
v 14.293544 0.000000 -4.992548
v 12.412814 0.000000 3.946564
v 16.675802 0.000000 2.849467
v 19.810349 0.000000 -7.045221
v 16.425037 0.000000 -6.292278
v 21.941845 0.000000 -3.879769
v 21.064171 0.000000 -0.108124
v 0.000000 0.000000 -31.086334
v -6.456281 0.000000 -30.450443
v -12.664452 0.000000 -28.567217
v -18.385933 0.000000 -25.509022
v -23.400854 0.000000 -21.393385
v -27.516495 0.000000 -16.378464
v -30.574688 0.000000 -10.656982
v -32.457916 0.000000 -4.448812
v -33.093807 0.000000 2.007467
v -32.457920 0.000000 8.463747
v -30.574692 0.000000 14.671915
v -27.516495 0.000000 20.393400
v -23.400854 0.000000 25.408323
v -18.385931 0.000000 29.523966
v -12.664446 0.000000 32.582165
v -6.456273 0.000000 34.465389
v 0.000011 0.000000 35.101280
v 6.456295 0.000000 34.465385
v 12.664466 0.000000 32.582153
v 18.385948 0.000000 29.523952
v 23.400869 0.000000 25.408310
v 27.516506 0.000000 20.393383
v 30.574701 0.000000 14.671896
v 32.457924 0.000000 8.463722
v 33.093807 0.000000 2.007438
v 32.457912 0.000000 -4.448846
v 30.574675 0.000000 -10.657017
v 27.516470 0.000000 -16.378498
v 23.400824 0.000000 -21.393414
v 18.385895 0.000000 -25.509048
v 12.664406 0.000000 -28.567238
v 6.456231 0.000000 -30.450455
v 0.000000 0.000000 -27.250341
v -5.707916 0.000000 -26.688158
v -11.196480 0.000000 -25.023222
v -16.254766 0.000000 -22.319510
v -20.688393 0.000000 -18.680923
v -24.326981 0.000000 -14.247297
v -27.030691 0.000000 -9.189011
v -28.695627 0.000000 -3.700447
v -29.257811 0.000000 2.007467
v -28.695629 0.000000 7.715382
v -27.030691 0.000000 13.203943
v -24.326981 0.000000 18.262236
v -20.688393 0.000000 22.695864
v -16.254765 0.000000 26.334452
v -11.196474 0.000000 29.038160
v -5.707909 0.000000 30.703100
v 0.000010 0.000000 31.265282
v 5.707928 0.000000 30.703096
v 11.196491 0.000000 29.038155
v 16.254782 0.000000 26.334442
v 20.688410 0.000000 22.695850
v 24.326992 0.000000 18.262220
v 27.030701 0.000000 13.203926
v 28.695631 0.000000 7.715361
v 29.257811 0.000000 2.007441
v 28.695623 0.000000 -3.700476
v 27.030678 0.000000 -9.189041
v 24.326960 0.000000 -14.247330
v 20.688372 0.000000 -18.680954
v 16.254734 0.000000 -22.319530
v 11.196440 0.000000 -25.023239
v 5.707872 0.000000 -26.688168
vn 0.000000 1.000000 0.000000
vn 0.018569 0.999770 -0.010704
vn 0.009708 0.999947 0.003562
vn -0.009406 0.999956 0.000000
vn -0.018569 0.999770 -0.010704
vn -0.009708 0.999947 0.003562
vn 0.009406 0.999956 0.000000
g Circle_Circle_Material.009
usemtl Material.009
s off
f 12//1 8//1 7//1
f 2//1 3//1 5//1
f 6//2 1//2 25//2
f 15//1 14//1 12//1
f 25//1 1//1 2//1
f 18//1 17//1 16//1
f 12//1 13//1 19//1
f 12//1 11//1 10//1
f 11//1 28//1 9//1
f 12//1 14//1 8//1
f 19//1 13//1 17//1
f 7//1 11//1 12//1
f 5//1 3//1 4//1
f 28//1 11//1 7//1
f 19//1 17//1 18//1
f 12//1 19//1 15//1
f 6//3 28//3 7//3
f 2//1 5//1 25//1
f 6//4 25//4 28//4
f 33//1 27//1 29//1
f 21//1 24//1 22//1
f 26//5 25//5 20//5
f 36//1 33//1 35//1
f 25//1 21//1 20//1
f 39//1 37//1 38//1
f 33//1 40//1 34//1
f 33//1 31//1 32//1
f 32//1 30//1 28//1
f 33//1 29//1 35//1
f 40//1 38//1 34//1
f 27//1 33//1 32//1
f 24//1 23//1 22//1
f 28//1 27//1 32//1
f 40//1 39//1 38//1
f 33//1 36//1 40//1
f 26//6 27//6 28//6
f 21//1 25//1 24//1
f 26//7 28//7 25//7
f 41//1 73//1 104//1
f 61//1 62//1 94//1
f 50//1 51//1 83//1
f 71//1 103//1 102//1
f 60//1 92//1 91//1
f 49//1 81//1 80//1
f 69//1 101//1 100//1
f 57//1 58//1 90//1
f 47//1 79//1 78//1
f 67//1 99//1 98//1
f 44//1 45//1 77//1
f 56//1 88//1 87//1
f 65//1 97//1 96//1
f 43//1 75//1 74//1
f 54//1 86//1 85//1
f 63//1 95//1 94//1
f 52//1 84//1 83//1
f 72//1 104//1 103//1
f 61//1 93//1 92//1
f 50//1 82//1 81//1
f 70//1 102//1 101//1
f 59//1 91//1 90//1
f 48//1 80//1 79//1
f 68//1 100//1 99//1
f 46//1 78//1 77//1
f 57//1 89//1 88//1
f 66//1 98//1 97//1
f 43//1 44//1 76//1
f 54//1 55//1 87//1
f 63//1 64//1 96//1
f 41//1 42//1 74//1
f 53//1 85//1 84//1
f 72//1 41//1 104//1
f 93//1 61//1 94//1
f 82//1 50//1 83//1
f 70//1 71//1 102//1
f 59//1 60//1 91//1
f 48//1 49//1 80//1
f 68//1 69//1 100//1
f 89//1 57//1 90//1
f 46//1 47//1 78//1
f 66//1 67//1 98//1
f 76//1 44//1 77//1
f 55//1 56//1 87//1
f 64//1 65//1 96//1
f 42//1 43//1 74//1
f 53//1 54//1 85//1
f 62//1 63//1 94//1
f 51//1 52//1 83//1
f 71//1 72//1 103//1
f 60//1 61//1 92//1
f 49//1 50//1 81//1
f 69//1 70//1 101//1
f 58//1 59//1 90//1
f 47//1 48//1 79//1
f 67//1 68//1 99//1
f 45//1 46//1 77//1
f 56//1 57//1 88//1
f 65//1 66//1 97//1
f 75//1 43//1 76//1
f 86//1 54//1 87//1
f 95//1 63//1 96//1
f 73//1 41//1 74//1
f 52//1 53//1 84//1
